<?xml version="1.0" encoding="UTF-8" standalone="no"?>
<svg
   xmlns:dc="http://purl.org/dc/elements/1.1/"
   xmlns:cc="http://creativecommons.org/ns#"
   xmlns:rdf="http://www.w3.org/1999/02/22-rdf-syntax-ns#"
   xmlns:svg="http://www.w3.org/2000/svg"
   xmlns="http://www.w3.org/2000/svg"
   xmlns:xlink="http://www.w3.org/1999/xlink"
   xmlns:sodipodi="http://sodipodi.sourceforge.net/DTD/sodipodi-0.dtd"
   xmlns:inkscape="http://www.inkscape.org/namespaces/inkscape"
   width="210mm"
   height="297mm"
   viewBox="0 0 210 297"
   version="1.1"
   id="svg8"
   inkscape:version="1.0.1 (3bc2e813f5, 2020-09-07)"
   sodipodi:docname="viz.svg"
   inkscape:export-filename="C:\Users\tobia\OneDrive\Desktop\dataviz\mountain_perspective\ink\mountain_perspective_600dpi.png"
   inkscape:export-xdpi="600"
   inkscape:export-ydpi="600">
  <defs
     id="defs2">
    <linearGradient
       inkscape:collect="always"
       id="linearGradient1367">
      <stop
         style="stop-color:#ffffff;stop-opacity:1"
         offset="0"
         id="stop1363" />
      <stop
         style="stop-color:#5280a0;stop-opacity:0.7647059"
         offset="1"
         id="stop1365" />
    </linearGradient>
    <linearGradient
       inkscape:collect="always"
       id="linearGradient1244">
      <stop
         style="stop-color:#2a6894;stop-opacity:0.72142863"
         offset="0"
         id="stop1240" />
      <stop
         style="stop-color:#004473;stop-opacity:0;"
         offset="1"
         id="stop1242" />
    </linearGradient>
    <linearGradient
       inkscape:collect="always"
       id="linearGradient1226">
      <stop
         style="stop-color:#296894;stop-opacity:0.72000003"
         offset="0"
         id="stop1222" />
      <stop
         style="stop-color:#004473;stop-opacity:0;"
         offset="1"
         id="stop1224" />
    </linearGradient>
    <clipPath
       clipPathUnits="userSpaceOnUse"
       id="clipPath1007">
      <path
         style="fill:#55f6e2;fill-opacity:1;stroke:#000000;stroke-width:0.264583px;stroke-linecap:butt;stroke-linejoin:miter;stroke-opacity:1"
         d="m 111.98593,274.88671 60.26928,-51.58302 -5.70945,-1.24268 5.95312,-5.14993 -0.0472,-10.39434 -5.48066,-2.12612 -0.8032,-0.28348 -0.82682,-0.37798 -0.77958,-0.4016 -0.63783,-0.25985 -0.51972,-0.16537 -0.44885,-0.0236 -0.28348,-0.0236 -1.72452,-0.59059 -0.68508,-0.23624 -1.22842,-0.44884 -0.85045,-0.42523 -0.47247,-0.28348 -0.37797,-0.11812 -0.37798,-0.35435 -0.3071,-0.18899 -0.16537,-0.0945 -0.37798,-0.30711 -0.11811,-0.42522 -0.23624,-0.42522 -0.23623,-0.35436 -0.28348,-0.0945 -1.44104,-0.67327 -0.93313,-0.37797 -0.64964,-0.17718 -0.75596,-0.18899 -0.62602,-0.23623 -0.44885,-0.14174 -0.4016,-0.10631 -0.4016,-0.2953 -0.34254,-0.0945 -0.28348,-0.14174 -0.18899,-0.0945 -0.23623,0.1063 -0.0945,0.10631 h -0.31891 l -0.18899,0.0945 -0.12993,0.10631 -0.18899,0.0591 -0.0591,0.0709 -0.42522,0.0354 -0.24805,0.0709 -0.28348,0.12993 -0.16536,0.11812 -0.92132,0.0118 -0.33073,0.0354 -0.33073,0.1063 -0.64384,0.14619 c 0,0 -0.25057,0.0835 -0.31738,0.0835 -0.0668,0 -0.40091,0.0835 -0.40091,0.0835 l -0.15034,0.20045 -0.26727,-0.10023 h -0.30067 l -0.0835,0.0668 -0.35079,0.0835 -0.33409,-0.15034 -0.35079,-0.10022 -0.13363,0.0334 -0.35079,-0.0334 -0.28398,-0.13364 -0.0835,-0.0835 -0.3842,-0.0334 -0.13363,-0.13363 -0.61806,-0.35079 -0.20046,-0.23387 -0.36749,-0.18374 -0.26727,-0.23386 -0.28398,-0.16705 -0.4009,-0.18374 -0.21716,-0.0668 -0.26727,-0.21716 -0.21715,-0.16704 -0.31738,-0.0334 -0.26727,-0.20045 -0.11693,-0.0835 -0.15034,-0.0668 -0.28398,-0.10023 -0.0668,-0.16704 -0.28398,0.0668 -0.13363,-0.0668 -0.16705,-0.15034 -0.18374,-0.0167 -0.21716,-0.0334 -0.11693,-0.0835 -0.0334,-0.11693 -0.43849,-0.11693 c 0,0 -0.16704,-0.10022 -0.19627,-0.11694 -0.0292,-0.0167 -0.25475,-0.11693 -0.25475,-0.11693 0,0 -0.26727,-0.0585 -0.30903,-0.071 -0.0418,-0.0125 -0.27562,-0.0626 -0.27562,-0.0626 l -0.20045,-0.0292 -0.0941,-0.1379 c 0,0 -0.0472,-0.17719 -0.0945,-0.2008 -0.0472,-0.0236 -0.17717,-0.12993 -0.17717,-0.12993 l -0.12993,-0.15355 -0.0354,-0.17719 -0.28348,-0.12992 -0.2008,-0.16536 -0.2008,-0.11812 -0.11812,-0.10631 -0.15355,-0.0709 -0.24805,-0.15356 -0.22442,-0.0472 -0.30711,-0.0354 -0.35435,-0.12992 -0.14174,-0.12993 -0.11812,-0.16538 h -0.15355 l -0.21261,-0.0118 -0.11812,-0.22442 -0.24804,-0.0118 h -0.56697 -0.44885 l -0.29529,-0.0709 -0.2008,-0.2008 -0.31892,-0.0118 -0.34254,0.0709 -0.0709,0.10631 h -0.34254 l -0.38979,-0.0354 c 0,0 -0.1063,0.0591 -0.15355,0.0591 -0.0472,0 -0.24805,-0.33073 -0.24805,-0.33073 0,0 -0.2008,-0.0945 -0.29529,-0.0827 -0.0945,0.0118 -0.25986,0.0118 -0.25986,0.0118 l -0.33073,-0.10631 -0.14174,-0.21261 h -0.24805 l -0.31891,0.14174 -0.28349,0.18899 -0.23623,0.0591 h -0.53153 l -0.33073,-0.0354 h -0.3071 v 0.0709 l -0.31892,0.0827 h -0.44885 l -0.42522,-0.0236 -0.21261,0.0472 -0.22443,0.0354 -0.29529,0.0118 -0.0945,0.16536 -0.24804,0.11812 -0.22443,0.0236 -0.16536,0.0354 -0.23623,0.12992 -0.2953,0.15356 -0.27167,0.0827 -0.0945,0.0354 -0.15356,-0.0236 -0.15355,-0.15355 -0.11812,-0.15356 -0.17717,-0.0709 -0.18899,-0.0354 -0.16536,-0.16537 -0.15356,-0.0591 -0.15355,0.0118 -0.10631,-0.0709 h -0.25986 l -0.41341,-0.0118 h -0.24805 l -0.27166,0.0118 h -0.34255 l -0.17717,-0.0118 -0.0473,0.0945 -0.35435,-0.34255 -0.33073,-0.23623 -0.33073,-0.17718 -0.4016,-0.27167 -0.38979,-0.18899 -0.4016,-0.17717 -0.33073,-0.17718 -0.27167,-0.21261 -0.3071,-0.0827 -0.22443,-0.0827 -0.22442,-0.0473 -0.29529,-0.0945 -0.25986,-0.14174 -0.23624,-0.0473 -0.4016,-0.14174 -0.27167,-0.0472 -0.38978,-0.2008 -0.2953,-0.0945 -0.4016,-0.16537 -0.12993,-0.0709 -0.21261,-0.11812 -0.23623,-0.12992 -0.14174,-0.0354 -0.4502,-0.15782 c 0,0 -0.46773,-0.19209 -0.50949,-0.2088 -0.0418,-0.0167 -0.37584,-0.28397 -0.37584,-0.28397 l -0.65982,-0.26727 -0.61807,-0.34244 -0.45101,-0.1754 c 0,0 -0.31739,-0.10858 -0.3675,-0.15034 -0.0501,-0.0418 -0.46772,-0.27562 -0.46772,-0.27562 l -0.39255,-0.13363 -0.39255,-0.1921 c 0,0 -0.43432,-0.20881 -0.47608,-0.21716 -0.0418,-0.008 -0.65056,-0.20585 -0.65056,-0.20585 l -0.37798,-0.16536 -0.47247,-0.21261 -0.14437,0.003 c 0,0 -0.0668,0.0793 -0.096,0.0919 -0.0292,0.0125 -0.18374,0.1044 -0.23803,0.12528 -0.0543,0.0209 -0.9605,0.34662 -0.9605,0.34662 0,0 -0.0501,0.15034 -0.15034,0.16704 -0.10023,0.0167 -0.43431,0.18375 -0.43431,0.18375 l -0.63477,0.23386 c 0,0 -0.350792,0.16705 -0.41761,0.20045 -0.06682,0.0334 -0.384199,0.0835 -0.384199,0.0835 l -0.267271,0.15033 c 0,0 0.06682,0.0668 -0.100224,0.0668 -0.167045,0 -0.350793,-0.0167 -0.350793,-0.0167 l -0.183748,0.15034 -0.200451,0.13363 -0.217156,0.0501 -0.233863,0.0835 c 0,0 -0.05011,0.0668 -0.167042,0.11693 -0.11693,0.0501 -0.300678,0.15034 -0.300678,0.15034 l -0.217156,0.18374 -0.06682,0.13364 -0.350793,0.0668 -0.06682,0.20046 -0.11693,0.15034 -0.317381,0.0334 -0.133636,0.13363 -0.250568,0.16704 -0.133633,0.0835 -0.183748,0.0501 -0.250563,0.0418 -0.175395,0.008 -0.225512,-0.15034 -0.03341,-0.15034 c 0,0 -0.250566,-0.0334 -0.300678,-0.0167 -0.05011,0.0167 -0.392552,0.0167 -0.392552,0.0167 h -0.300678 l -0.242212,-0.15869 -0.150339,-0.18375 -0.283975,-0.025 -0.217157,-0.0501 c 0,0 -0.225509,-0.15869 -0.267269,-0.15869 -0.04176,0 -0.325736,-0.10858 -0.325736,-0.10858 l -0.334087,-0.18374 c 0,0 -0.141986,0.025 -0.175395,0.025 -0.03341,0 -0.167042,-0.10022 -0.208804,-0.10022 -0.04176,0 -0.208803,0 -0.208803,0 l -0.100227,0.10857 c 0,0 -0.05847,-0.0418 -0.09187,-0.0585 -0.03341,-0.0167 -0.192103,-0.0668 -0.192103,-0.0668 l -0.175393,-0.008 -0.08352,-0.0585 -0.100226,-0.16704 -0.05846,-0.17539 -0.108577,-0.0585 -0.133636,-0.0167 c 0,0 -0.150339,-0.10023 -0.192101,-0.10023 -0.04176,0 -0.175395,-0.0501 -0.208803,-0.0501 -0.03341,0 -0.22551,0.0334 -0.22551,0.0334 0,0 -0.150339,0.11693 -0.208804,0.13363 -0.05846,0.0167 -0.317381,0.0752 -0.317381,0.0752 l -0.183748,0.0919 -0.175397,0.0167 -0.05011,0.0752 c 0,0 -0.11693,0.0585 -0.175395,0.0334 -0.05846,-0.0251 -0.116932,-0.0919 -0.116932,-0.0919 l -0.192098,-0.0334 -0.283975,0.0167 h -0.175395 l -0.11693,0.0418 -0.07517,0.0919 c 0,0 -0.03341,0.0501 -0.08352,0.0668 -0.05011,0.0167 -0.400902,-0.0418 -0.400902,-0.0418 H 86.97129 l -0.217157,-0.0919 c 0,0 -0.06681,-0.0251 -0.100224,0.0251 -0.03341,0.0501 -0.11693,0.11693 -0.175395,0.12528 -0.05847,0.008 -0.11693,-0.0167 -0.192098,0.008 -0.07517,0.0251 -0.192103,0.0752 -0.258921,0.0919 -0.06682,0.0167 -0.217157,0.10023 -0.217157,0.10023 l -0.06682,0.0919 -0.258916,0.10023 -0.250565,0.0668 -0.183748,0.0334 -0.141986,0.0835 c 0,0 -1.68714,-0.0334 -1.720549,-0.0167 -0.03341,0.0167 -0.23386,0.12529 -0.23386,0.12529 l -1.628674,-0.0251 -0.217157,0.12528 -0.192101,0.14199 c 0,0 -0.158689,0.0835 -0.217156,0.12528 -0.05846,0.0418 -0.175395,0.13364 -0.175395,0.13364 0,0 0,0.0752 -0.07517,0.10022 -0.07517,0.0251 -0.250566,0.0752 -0.250566,0.0752 l -0.23386,0.0167 -0.06682,0.0835 -0.208804,0.0501 -0.09187,0.0585 -0.133638,0.0585 -0.208804,0.0418 -0.03341,0.0668 -0.150339,0.0418 -0.150339,0.0752 -0.253386,0.53012 -0.330729,0.8032 c 0,0 -0.118118,0.25986 -0.14174,0.35436 -0.02363,0.0945 -0.0945,0.37797 -0.0945,0.37797 l -0.212609,0.44885 c 0,0 -0.224422,0.24805 -0.25986,0.31892 -0.03544,0.0709 -0.200798,0.38978 -0.200798,0.38978 l -0.14174,0.46066 c 0,0 -0.106307,0.23623 -0.141745,0.29529 -0.03544,0.0591 -0.188984,0.46066 -0.188984,0.46066 0,0 -0.141745,0.28349 -0.141745,0.33073 0,0.0472 -0.05906,0.24805 -0.05906,0.2953 0,0.0472 -0.25986,0.66146 -0.25986,0.66146 0,0 -0.09449,0.41341 -0.118116,0.47247 -0.02363,0.0591 -0.224425,0.44884 -0.271671,0.48428 -0.04725,0.0354 -0.177176,0.27167 -0.188989,0.33073 -0.0118,0.0591 -0.02363,0.27167 -0.04725,0.31891 -0.02363,0.0473 -0.263043,0.84309 -0.263043,0.84309 l -0.400902,0.7517 -0.400905,0.66817 -0.233862,0.50113 -0.334084,1.05237 c 0,0 -0.334087,0.43432 -0.334087,0.51784 0,0.0835 -0.133636,0.51783 -0.133636,0.51783 l -0.317381,0.81852 -0.150339,0.46772 -0.116932,0.30068 -0.11693,0.65147 -0.250566,0.83521 c 0,0 -0.183748,0.25057 -0.200451,0.31739 -0.01669,0.0668 -0.150339,0.43431 -0.150339,0.43431 0,0 -0.217159,0.55123 -0.23386,0.593 -0.01669,0.0418 -0.116932,0.23386 -0.125285,0.28398 -0.0084,0.0501 -0.100227,0.23386 -0.125283,0.28397 -0.02506,0.0501 -0.11693,0.21716 -0.158689,0.27562 -0.04176,0.0585 -0.810162,1.30294 -0.810162,1.30294 l -0.299093,0.55428 -0.171273,0.28939 c 0,0 -0.100399,0.18899 -0.118115,0.23033 -0.01773,0.0413 -0.183084,0.28939 -0.194895,0.34254 -0.0118,0.0532 -0.147648,0.26576 -0.194895,0.32482 -0.04725,0.0591 -0.448847,0.89769 -0.448847,0.89769 l -0.377976,0.56697 c 0,0 -0.236238,0.49609 -0.318918,0.57877 -0.08268,0.0827 -0.153551,0.2008 -0.224422,0.33073 -0.07087,0.12993 -0.212611,0.30711 -0.248047,0.38979 -0.03544,0.0827 -0.2008,0.51972 -0.2008,0.51972 0,0 -0.165365,0.21261 -0.165365,0.25986 0,0.0473 -0.09449,0.27167 -0.09449,0.27167 l -0.377976,0.48428 c 0,0 -0.281602,0.49891 -0.331714,0.54485 -0.05011,0.0459 -0.217156,0.27145 -0.233862,0.28815 -0.01669,0.0167 -0.396727,0.44684 -0.40508,0.4719 -0.0084,0.025 -0.104402,0.23386 -0.17957,0.29232 -0.07517,0.0585 -0.200454,0.14617 -0.200454,0.14617 l -1.117978,1.70564 c 0,0 -0.318918,0.31892 -0.366165,0.41341 -0.04725,0.0945 -0.389787,0.53153 -0.472469,0.62603 -0.08268,0.0945 -1.252048,1.1221 -1.252048,1.1221 0,0 -0.354351,0.33074 -0.413411,0.36618 -0.05906,0.0354 -0.460658,0.34254 -0.460658,0.34254 l -1.334728,1.27567 -0.484283,0.41341 -0.720516,0.60829 -0.74414,0.56107 c 0,0 -0.372071,0.31301 -0.407506,0.33073 -0.03544,0.0177 -0.372071,0.28939 -0.372071,0.28939 0,0 -0.09449,0.11811 -0.135834,0.12993 -0.04134,0.0118 -0.153554,0.11812 -0.153554,0.11812 l -0.324823,0.0236 -0.442942,-0.0413 -0.419317,-0.0236 h -0.188987 l -0.153553,-0.0827 -0.04725,-0.12992 -0.09449,-0.0295 c 0,0 -0.02363,-0.0709 -0.112213,-0.0709 -0.08859,0 -0.224424,0 -0.224424,0 l -0.200798,0.10631 -1.009907,0.0236 -0.153553,-0.0354 c 0,0 -0.06496,-0.14764 -0.08859,-0.14764 -0.02363,0 -0.460658,0.0354 -0.48428,0.0354 -0.02363,0 -0.171273,0.0354 -0.171273,0 0,-0.0354 -0.07087,-0.12993 -0.118115,-0.11811 -0.04725,0.0118 -0.194895,0.0177 -0.194895,0.0177 l -0.02363,0.0768 -0.124023,-0.0472 -0.17127,-0.0413 -0.183081,-0.0295 c 0,0 -0.100402,-0.0177 -0.129929,0 -0.02953,0.0177 -0.200801,0.0532 -0.224425,0.0532 -0.02363,0 -0.08859,-0.0768 -0.08859,-0.0768 0,0 -0.08859,-0.0591 -0.112212,-0.0591 -0.02363,0 -0.803201,0.006 -0.803201,0.006 l -0.100399,0.006 c 0,0 -0.05315,0.14764 -0.08268,0.14764 -0.02953,0 -0.31301,-0.0472 -0.31301,-0.0472 l -0.01773,-0.0827 -0.100398,0.0709 -0.271672,0.0413 -0.2008,-0.0236 -0.118115,0.12402 h -0.242142 c 0,0 -0.07087,-0.006 -0.0945,-0.0177 -0.02363,-0.0118 -0.106302,-0.0532 -0.112207,-0.0827 -0.0059,-0.0295 -0.03544,-0.16537 -0.07087,-0.16537 -0.03543,0 -0.36026,0.0413 -0.413412,0.0413 -0.05315,0 -0.289388,0.006 -0.289388,0.006 l -0.09449,0.0413 c 0,0 -0.03544,0.0709 -0.0945,0.0709 -0.05906,0 -0.289388,0 -0.330729,0 -0.04134,0 -0.14174,0 -0.14174,0 0,0 0,0.065 -0.05315,0.1004 -0.05315,0.0354 -0.188989,0.006 -0.188989,0.006 0,0 -0.01773,0.11222 -0.07678,0.11222 -0.05906,0 -0.165365,-0.0886 -0.165365,-0.0886 l -0.01773,-0.14174 c 0,0 -0.04134,-0.0768 -0.07087,-0.11221 -0.02953,-0.0354 -0.14174,-0.0768 -0.14174,-0.0768 0,0 -0.01773,0.0886 -0.03544,0.13583 -0.01773,0.0472 -0.07087,0.11222 -0.112212,0.11222 -0.04134,0 -0.07087,-0.0295 -0.08859,-0.1004 -0.01773,-0.0709 -0.0059,-0.11221 -0.06497,-0.11221 -0.05906,0 -0.242141,-0.0118 -0.242141,-0.0118 l -0.118118,-0.19488 c 0,0 -0.224425,0.0177 -0.25395,0.0177 -0.02953,0 -0.147648,0 -0.147648,0 l -0.04134,0.11222 -0.36026,0.006 -0.2008,-0.0177 -0.159456,-0.1004 -0.277577,-0.0591 c 0,0 -0.08268,0.0295 -0.100402,0.0532 -0.01773,0.0236 -0.03543,0.12403 -0.03543,0.12403 0,0 -0.07087,-0.006 -0.159459,0.0118 -0.08859,0.0177 -0.129929,-0.0177 -0.106307,0.0295 0.02363,0.0472 0.09449,0.14174 0.02363,0.17127 -0.07087,0.0295 -0.141742,0.0472 -0.206705,0.065 -0.06497,0.0177 -0.124024,0.0413 -0.18899,0.0709 -0.06496,0.0295 -0.159459,0.11221 -0.159459,0.11221 0,0 -0.07678,0.0413 -0.07678,0.0886 0,0.0472 0.03543,0.0709 -0.06496,0.0768 -0.100401,0.006 -0.124023,-0.0236 -0.147648,0.006 -0.02363,0.0295 0.01183,0.0709 -0.03543,0.11812 -0.04725,0.0472 -0.188987,0.0709 -0.188987,0.0709 l -0.153553,0.1004 c 0,0 -0.153554,-0.0118 -0.183081,-0.0118 -0.02953,0 -0.112213,0.1063 -0.112213,0.1063 l -0.159459,0.0177 c 0,0 -0.118118,0.006 -0.124023,0.0532 -0.0059,0.0472 -0.08268,0.12402 -0.112213,0.14765 -0.02953,0.0236 -0.07087,0.0118 -0.106304,0.0591 -0.03544,0.0472 -0.05315,0.0945 -0.106307,0.12402 -0.05315,0.0295 -0.165365,0.0591 -0.165365,0.0591 0,0 -0.03543,0.0532 -0.06496,0.1004 -0.02953,0.0473 -0.08859,0.1004 -0.112213,0.11812 -0.02363,0.0177 -0.118117,0.0827 -0.118117,0.0827 l -0.03544,24.13732 5.247976,1.57486 -5.412205,4.27631 z"
         id="path1009" />
    </clipPath>
    <linearGradient
       inkscape:collect="always"
       xlink:href="#linearGradient1226"
       id="linearGradient1228"
       x1="230.26398"
       y1="158.66248"
       x2="66.222328"
       y2="200.37018"
       gradientUnits="userSpaceOnUse" />
    <linearGradient
       inkscape:collect="always"
       xlink:href="#linearGradient1244"
       id="linearGradient1238"
       gradientUnits="userSpaceOnUse"
       x1="225.35771"
       y1="69.467758"
       x2="66.985687"
       y2="110.28918" />
    <radialGradient
       inkscape:collect="always"
       xlink:href="#linearGradient1367"
       id="radialGradient1371"
       cx="100.99574"
       cy="200.68227"
       fx="100.99574"
       fy="200.68227"
       r="105.30419"
       gradientTransform="matrix(3.3860967,-0.03377836,0.05193131,5.2082125,-249.31481,-812.07507)"
       gradientUnits="userSpaceOnUse" />
  </defs>
  <sodipodi:namedview
     id="base"
     pagecolor="#ffffff"
     bordercolor="#666666"
     borderopacity="1.0"
     inkscape:pageopacity="0.0"
     inkscape:pageshadow="2"
     inkscape:zoom="0.49497475"
     inkscape:cx="88.91044"
     inkscape:cy="184.10007"
     inkscape:document-units="mm"
     inkscape:current-layer="layer2"
     inkscape:document-rotation="0"
     showgrid="false"
     inkscape:window-width="1920"
     inkscape:window-height="1009"
     inkscape:window-x="-8"
     inkscape:window-y="-8"
     inkscape:window-maximized="1"
     showguides="false"
     inkscape:guide-bbox="true">
    <sodipodi:guide
       position="51.782738,156.77083"
       orientation="1,0"
       id="guide1143" />
    <sodipodi:guide
       position="93.360119,168.4881"
       orientation="1,0"
       id="guide1216" />
    <sodipodi:guide
       position="108.85714,244.83929"
       orientation="1,0"
       id="guide1218" />
    <sodipodi:guide
       position="157.99405,229.34226"
       orientation="1,0"
       id="guide1220" />
  </sodipodi:namedview>
  <metadata
     id="metadata5">
    <rdf:RDF>
      <cc:Work
         rdf:about="">
        <dc:format>image/svg+xml</dc:format>
        <dc:type
           rdf:resource="http://purl.org/dc/dcmitype/StillImage" />
        <dc:title />
      </cc:Work>
    </rdf:RDF>
  </metadata>
  <g
     inkscape:groupmode="layer"
     id="layer2"
     inkscape:label="Layer 2">
    <rect
       style="font-variation-settings:'wght' 249;opacity:1;fill:url(#radialGradient1371);fill-opacity:1;stroke:none;stroke-width:0.0787367;stroke-miterlimit:4;stroke-dasharray:none;stroke-dashoffset:0;stroke-opacity:1;paint-order:stroke fill markers"
       id="rect1318"
       width="210.96663"
       height="297.2421"
       x="0.019756109"
       y="-0.038394302"
       inkscape:export-xdpi="600"
       inkscape:export-ydpi="600" />
  </g>
  <g
     inkscape:groupmode="layer"
     id="layer3"
     inkscape:label="Layer 3">
    <path
       style="fill:none;stroke:#000000;stroke-width:0.1;stroke-linecap:butt;stroke-linejoin:miter;stroke-miterlimit:4;stroke-dasharray:0.8, 0.40000000000000002;stroke-dashoffset:0;stroke-opacity:1"
       d="m 45.063065,114.44692 0.08033,79.69849 -0.155292,45.89008"
       id="path1131"
       sodipodi:nodetypes="ccc"
       inkscape:export-xdpi="600"
       inkscape:export-ydpi="600" />
    <path
       style="fill:none;stroke:#000000;stroke-width:0.1;stroke-linecap:butt;stroke-linejoin:miter;stroke-miterlimit:4;stroke-dasharray:0.8, 0.40000000000000002;stroke-dashoffset:0;stroke-opacity:1"
       d="m 166.43341,84.276368 0.12084,125.676712"
       id="path1135"
       sodipodi:nodetypes="cc"
       inkscape:export-xdpi="600"
       inkscape:export-ydpi="600" />
    <path
       style="fill:none;stroke:#000000;stroke-width:0.1;stroke-linecap:butt;stroke-linejoin:miter;stroke-miterlimit:4;stroke-dasharray:0.8, 0.40000000000000002;stroke-dashoffset:0;stroke-opacity:1"
       d="m 101.76073,65.192091 -0.003,114.794869"
       id="path1141"
       sodipodi:nodetypes="cc"
       inkscape:export-xdpi="600"
       inkscape:export-ydpi="600" />
  </g>
  <g
     inkscape:label="Layer 1"
     inkscape:groupmode="layer"
     id="layer1">
    <image
       sodipodi:absref="C:\Users\tobia\OneDrive\Desktop\dataviz\mountain_perspective\model_dente_blanche_.png"
       xlink:href="../model_dente_blanche_.png"
       inkscape:export-ydpi="600"
       inkscape:export-xdpi="600"
       width="173.50925"
       height="122.72888"
       preserveAspectRatio="none"
       style="fill:#55f6e2;fill-opacity:0.621429;image-rendering:optimizeQuality"
       id="image20"
       x="20.753067"
       y="155.00642"
       clip-path="url(#clipPath1007)"
       transform="matrix(0.93580363,0,0,0.93580363,5.1291699,6.9669057)" />
    <text
       xml:space="preserve"
       style="font-style:normal;font-variant:normal;font-weight:normal;font-stretch:normal;font-size:4.58611px;line-height:1.25;font-family:'Work Sans';-inkscape-font-specification:'Work Sans, @wght=249';font-variant-ligatures:normal;font-variant-caps:normal;font-variant-numeric:normal;font-variant-east-asian:normal;font-variation-settings:'wght' 249;stroke-width:0.247599"
       x="-86.043037"
       y="179.90184"
       id="text82"
       transform="rotate(-41.015492)"
       inkscape:export-xdpi="600"
       inkscape:export-ydpi="600"><tspan
         sodipodi:role="line"
         x="-86.043037"
         y="179.90184"
         style="font-style:normal;font-variant:normal;font-weight:normal;font-stretch:normal;font-size:4.58611px;font-family:'Work Sans';-inkscape-font-specification:'Work Sans, @wght=249';font-variant-ligatures:normal;font-variant-caps:normal;font-variant-numeric:normal;font-variant-east-asian:normal;font-variation-settings:'wght' 249;stroke-width:0.247599"
         id="tspan1027"><tspan
           id="tspan887"
           style="font-style:normal;font-variant:normal;font-weight:normal;font-stretch:normal;font-size:4.58611px;font-family:'Work Sans';-inkscape-font-specification:'Work Sans, @wght=249';font-variant-ligatures:normal;font-variant-caps:normal;font-variant-numeric:normal;font-variant-east-asian:normal;font-variation-settings:'wght' 249;stroke-width:0.247599">Dente Blanche | 4'757 m</tspan></tspan></text>
    <text
       xml:space="preserve"
       style="font-style:normal;font-variant:normal;font-weight:normal;font-stretch:normal;font-size:4.58611px;line-height:1.25;font-family:'Work Sans';-inkscape-font-specification:'Work Sans, @wght=249';font-variant-ligatures:normal;font-variant-caps:normal;font-variant-numeric:normal;font-variant-east-asian:normal;font-variation-settings:'wght' 249;white-space:pre;stroke-width:0.247599"
       x="-28.520895"
       y="112.50513"
       id="text82-0-1-6"
       transform="rotate(-41.029149)"
       inkscape:export-xdpi="600"
       inkscape:export-ydpi="600"><tspan
         id="tspan80-7-0-6"
         x="-28.520895"
         y="112.50513"
         style="font-style:normal;font-variant:normal;font-weight:normal;font-stretch:normal;font-size:4.58611px;font-family:'Work Sans';-inkscape-font-specification:'Work Sans, @wght=249';font-variant-ligatures:normal;font-variant-caps:normal;font-variant-numeric:normal;font-variant-east-asian:normal;font-variation-settings:'wght' 249;stroke-width:0.247599">Mount Everest | 8'848 m</tspan></text>
    <g
       id="g919"
       style="fill:#f4ff00;fill-opacity:1;stroke:#171717;stroke-opacity:1;stroke-width:0.1;stroke-miterlimit:4;stroke-dasharray:none"
       inkscape:export-xdpi="600"
       inkscape:export-ydpi="600">
      <g
         id="g78"
         transform="matrix(0.93580363,0,0,0.93580363,26.422334,-0.07196387)"
         style="fill:#f4ff00;fill-opacity:1;stroke:#171717;stroke-width:0.10686003;stroke-miterlimit:4;stroke-dasharray:none;stroke-opacity:1">
        <path
           style="fill:#f4ff00;fill-opacity:1;stroke:#171717;stroke-width:0.10686003;stroke-linecap:butt;stroke-linejoin:miter;stroke-miterlimit:4;stroke-dasharray:none;stroke-opacity:1"
           d="m 19.91158,217.42376 v 0 l 69.479787,20.18152 v 0"
           id="path66"
           sodipodi:nodetypes="cccc" />
        <path
           style="fill:#f4ff00;fill-opacity:1;stroke:#171717;stroke-width:0.10686003;stroke-linecap:butt;stroke-linejoin:miter;stroke-miterlimit:4;stroke-dasharray:none;stroke-opacity:1"
           d="M 89.391367,237.60528 149.5206,185.51846 v 0 0"
           id="path68"
           sodipodi:nodetypes="cccc" />
        <path
           style="fill:#f4ff00;fill-opacity:1;stroke:#171717;stroke-width:0.10686003;stroke-linecap:butt;stroke-linejoin:miter;stroke-miterlimit:4;stroke-dasharray:none;stroke-opacity:1"
           d="M 149.5206,185.51846 80.130951,165.45907 h -10e-7"
           id="path70"
           sodipodi:nodetypes="ccc" />
        <path
           style="fill:#f4ff00;fill-opacity:1;stroke:#171717;stroke-width:0.10686003;stroke-linecap:butt;stroke-linejoin:miter;stroke-miterlimit:4;stroke-dasharray:none;stroke-opacity:1"
           d="M 80.130951,165.45907 19.91158,217.42376"
           id="path72" />
      </g>
    </g>
    <g
       id="g172"
       transform="matrix(0.9715414,0,0,0.9715414,388.25691,34.632879)"
       style="stroke:#171717;stroke-width:0.10292922;stroke-miterlimit:4;stroke-dasharray:none;stroke-opacity:1"
       inkscape:export-xdpi="600"
       inkscape:export-ydpi="600">
      <path
         style="fill:none;stroke:#171717;stroke-width:0.10292922;stroke-linecap:butt;stroke-linejoin:miter;stroke-miterlimit:4;stroke-dasharray:none;stroke-opacity:1"
         d="m -353.2468,82.15197 v 0 l 66.85079,19.2267 v 0 h 10e-6"
         id="path160"
         sodipodi:nodetypes="ccccc" />
      <path
         style="fill:none;stroke:#171717;stroke-width:0.10292922;stroke-linecap:butt;stroke-linejoin:miter;stroke-miterlimit:4;stroke-dasharray:none;stroke-opacity:1"
         d="m -286.396,101.37867 58.07476,-50.281014 v 0"
         id="path162"
         sodipodi:nodetypes="ccc" />
      <path
         style="fill:none;stroke:#171717;stroke-width:0.10292922;stroke-linecap:butt;stroke-linejoin:miter;stroke-miterlimit:4;stroke-dasharray:none;stroke-opacity:1"
         d="m -353.24679,82.151968 58.42537,-50.685451 v 0"
         id="path164"
         sodipodi:nodetypes="ccc" />
      <path
         style="fill:none;stroke:#171717;stroke-width:0.10292922;stroke-linecap:butt;stroke-linejoin:miter;stroke-miterlimit:4;stroke-dasharray:none;stroke-opacity:1"
         d="M -228.32124,51.097656 -294.82142,31.466517"
         id="path166" />
    </g>
    <text
       xml:space="preserve"
       style="font-style:normal;font-variant:normal;font-weight:normal;font-stretch:normal;font-size:12.7px;line-height:1.25;font-family:'Baskerville Old Face';-inkscape-font-specification:'Baskerville Old Face, Normal';font-variant-ligatures:normal;font-variant-caps:normal;font-variant-numeric:normal;font-variant-east-asian:normal;fill:#000000;fill-opacity:1;stroke-width:0.264583"
       x="21.847021"
       y="25.702379"
       id="text1019"
       inkscape:export-xdpi="600"
       inkscape:export-ydpi="600"><tspan
         sodipodi:role="line"
         id="tspan1017"
         x="21.847021"
         y="25.702379"
         style="font-style:normal;font-variant:normal;font-weight:normal;font-stretch:normal;font-size:12.7px;font-family:'Baskerville Old Face';-inkscape-font-specification:'Baskerville Old Face, Normal';font-variant-ligatures:normal;font-variant-caps:normal;font-variant-numeric:normal;font-variant-east-asian:normal;fill:#000000;fill-opacity:1;stroke-width:0.264583">Putting a Mountain in Perspective</tspan></text>
    <text
       xml:space="preserve"
       style="font-style:normal;font-variant:normal;font-weight:normal;font-stretch:normal;font-size:5.64444px;line-height:1.25;font-family:'Work Sans';-inkscape-font-specification:'Work Sans, @wght=247';font-variant-ligatures:normal;font-variant-caps:normal;font-variant-numeric:normal;font-variant-east-asian:normal;font-variation-settings:'wght' 247;white-space:pre;inline-size:124.065;stroke-width:0.264583"
       x="54.806541"
       y="37.41964"
       id="text1023"
       transform="translate(-9.9785715,2.2678572)"
       inkscape:export-xdpi="600"
       inkscape:export-ydpi="600"><tspan
         x="54.806541"
         y="37.41964"><tspan
           style="font-style:normal;font-variant:normal;font-weight:normal;font-stretch:normal;font-size:5.64444px;font-family:'Work Sans';-inkscape-font-specification:'Work Sans, @wght=247';font-variant-ligatures:normal;font-variant-caps:normal;font-variant-numeric:normal;font-variant-east-asian:normal;font-variation-settings:'wght' 247;stroke-width:0.264583">The Dente Blanche in Relation to Mount Everest</tspan></tspan></text>
    <text
       xml:space="preserve"
       style="font-style:normal;font-variant:normal;font-weight:normal;font-stretch:normal;font-size:3.52778px;line-height:1.25;font-family:'Work Sans';-inkscape-font-specification:'Work Sans, @wght=249';font-variant-ligatures:normal;font-variant-caps:normal;font-variant-numeric:normal;font-variant-east-asian:normal;font-variation-settings:'wght' 249;letter-spacing:0px;white-space:pre;stroke-width:0.247599"
       x="124.29515"
       y="31.435442"
       id="text82-0-1-6-8"
       transform="rotate(16.179318)"
       inkscape:export-xdpi="600"
       inkscape:export-ydpi="600"><tspan
         id="tspan80-7-0-6-1"
         x="124.29515"
         y="31.435442"
         style="font-style:normal;font-variant:normal;font-weight:normal;font-stretch:normal;font-size:3.52778px;font-family:'Work Sans';-inkscape-font-specification:'Work Sans, @wght=249';font-variant-ligatures:normal;font-variant-caps:normal;font-variant-numeric:normal;font-variant-east-asian:normal;font-variation-settings:'wght' 249;stroke-width:0.247599">27째 59' 9.83'' N | 86째 55' 21.44'' E</tspan></text>
    <text
       xml:space="preserve"
       style="font-style:normal;font-variant:normal;font-weight:normal;font-stretch:normal;font-size:3.84576px;line-height:1.25;font-family:'Work Sans';-inkscape-font-specification:'Work Sans, @wght=314';font-variant-ligatures:normal;font-variant-caps:normal;font-variant-numeric:normal;font-variant-east-asian:normal;font-variation-settings:'wght' 314;white-space:pre;stroke-width:0.218189"
       x="-35.920521"
       y="41.10104"
       id="text82-0-1-6-1"
       transform="rotate(-37.624398)"
       inkscape:export-xdpi="600"
       inkscape:export-ydpi="600"><tspan
         id="tspan80-7-0-6-11"
         x="-35.920521"
         y="41.10104"
         style="font-style:normal;font-variant:normal;font-weight:normal;font-stretch:normal;font-size:3.84576px;font-family:'Work Sans';-inkscape-font-specification:'Work Sans, @wght=314';font-variant-ligatures:normal;font-variant-caps:normal;font-variant-numeric:normal;font-variant-east-asian:normal;font-variation-settings:'wght' 314;stroke-width:0.218189">&quot;t</tspan></text>
    <path
       style="fill:none;stroke:#000000;stroke-width:0.264583px;stroke-linecap:butt;stroke-linejoin:miter;stroke-opacity:1"
       d="M 184.6607,149.60159 Z"
       id="path1137"
       inkscape:export-xdpi="600"
       inkscape:export-ydpi="600" />
    <text
       xml:space="preserve"
       style="font-style:normal;font-variant:normal;font-weight:normal;font-stretch:normal;font-size:4.58611px;line-height:1.25;font-family:'Work Sans';-inkscape-font-specification:'Work Sans, @wght=249';font-variant-ligatures:normal;font-variant-caps:normal;font-variant-numeric:normal;font-variant-east-asian:normal;font-variation-settings:'wght' 249;stroke-width:0.247599"
       x="-69.517311"
       y="278.35931"
       id="text82-4"
       transform="rotate(-40.71141)"
       inkscape:export-xdpi="600"
       inkscape:export-ydpi="600"><tspan
         sodipodi:role="line"
         x="-69.517311"
         y="278.35931"
         style="font-style:normal;font-variant:normal;font-weight:normal;font-stretch:normal;font-size:4.58611px;font-family:'Work Sans';-inkscape-font-specification:'Work Sans, @wght=249';font-variant-ligatures:normal;font-variant-caps:normal;font-variant-numeric:normal;font-variant-east-asian:normal;font-variation-settings:'wght' 249;stroke-width:0.247599"
         id="tspan1166">Baseline | 2'891 m</tspan></text>
    <text
       xml:space="preserve"
       style="font-style:normal;font-variant:normal;font-weight:normal;font-stretch:normal;font-size:3.52778px;line-height:1.25;font-family:'Work Sans';-inkscape-font-specification:'Work Sans, @wght=249';font-variant-ligatures:normal;font-variant-caps:normal;font-variant-numeric:normal;font-variant-east-asian:normal;font-variation-settings:'wght' 249;letter-spacing:0px;white-space:pre;stroke-width:0.247599"
       x="153.36224"
       y="117.36262"
       id="text82-0-1-6-8-9"
       transform="rotate(16.179318)"
       inkscape:export-xdpi="600"
       inkscape:export-ydpi="600"><tspan
         id="tspan80-7-0-6-1-0"
         x="153.36224"
         y="117.36262"
         style="font-style:normal;font-variant:normal;font-weight:normal;font-stretch:normal;font-size:3.52778px;font-family:'Work Sans';-inkscape-font-specification:'Work Sans, @wght=249';font-variant-ligatures:normal;font-variant-caps:normal;font-variant-numeric:normal;font-variant-east-asian:normal;font-variation-settings:'wght' 249;stroke-width:0.247599">46째 02' 1.80&quot; N | 7째 36' 25.79&quot; E</tspan></text>
    <text
       xml:space="preserve"
       style="font-style:normal;font-variant:normal;font-weight:normal;font-stretch:normal;font-size:2.82222px;line-height:1.1;font-family:'Work Sans';-inkscape-font-specification:'Work Sans, @wght=314';font-variant-ligatures:normal;font-variant-caps:normal;font-variant-numeric:normal;font-variant-east-asian:normal;font-variation-settings:'wght' 314;fill:#666666;stroke-width:0.264583"
       x="4.4967704"
       y="287.17157"
       id="text1194"
       inkscape:export-xdpi="600"
       inkscape:export-ydpi="600"><tspan
         style="font-style:normal;font-variant:normal;font-weight:normal;font-stretch:normal;font-size:2.82222px;font-family:'Work Sans';-inkscape-font-specification:'Work Sans, @wght=314';font-variant-ligatures:normal;font-variant-caps:normal;font-variant-numeric:normal;font-variant-east-asian:normal;font-variation-settings:'wght' 314;fill:#666666;stroke-width:0.264583"
         sodipodi:role="line"
         id="tspan1214"
         x="4.4967704"
         y="287.17157">Datavisualisation by Tobias Stalder</tspan><tspan
         sodipodi:role="line"
         x="4.4967704"
         y="290.276"
         style="font-style:normal;font-variant:normal;font-weight:normal;font-stretch:normal;font-size:2.82222px;font-family:'Work Sans';-inkscape-font-specification:'Work Sans, @wght=314';font-variant-ligatures:normal;font-variant-caps:normal;font-variant-numeric:normal;font-variant-east-asian:normal;font-variation-settings:'wght' 314;fill:#666666;stroke-width:0.264583"
         id="tspan1196">behance.net/tobiasstalder | github.com/toebR</tspan><tspan
         sodipodi:role="line"
         x="4.4967704"
         y="293.38046"
         style="font-style:normal;font-variant:normal;font-weight:normal;font-stretch:normal;font-size:2.82222px;font-family:'Work Sans';-inkscape-font-specification:'Work Sans, @wght=314';font-variant-ligatures:normal;font-variant-caps:normal;font-variant-numeric:normal;font-variant-east-asian:normal;font-variation-settings:'wght' 314;fill:#666666;stroke-width:0.264583"
         id="tspan1198">Data | SwissAlti3D by Swisstopo</tspan></text>
    <path
       style="opacity:1;fill:url(#linearGradient1228);fill-opacity:1;stroke:none;stroke-width:0.15;stroke-linecap:butt;stroke-linejoin:miter;stroke-miterlimit:4;stroke-dasharray:none;stroke-opacity:1"
       d="m 101.40911,154.76523 64.93508,18.77165 -56.26915,48.74304 -65.019407,-18.88594 z"
       id="path1099"
       inkscape:export-xdpi="600"
       inkscape:export-ydpi="600" />
    <path
       style="opacity:1;fill:url(#linearGradient1238);fill-opacity:1;stroke:none;stroke-width:0.15;stroke-linecap:butt;stroke-linejoin:miter;stroke-miterlimit:4;stroke-dasharray:none;stroke-opacity:1"
       d="M 101.82573,65.203897 166.43341,84.276361 110.01138,133.12645 45.063066,114.44692 Z"
       id="path1099-9-2"
       sodipodi:nodetypes="ccccc"
       inkscape:export-xdpi="600"
       inkscape:export-ydpi="600" />
    <path
       style="fill:none;stroke:#000000;stroke-width:0.1;stroke-linecap:butt;stroke-linejoin:miter;stroke-miterlimit:4;stroke-dasharray:0.8, 0.40000000000000002;stroke-dashoffset:0;stroke-opacity:1"
       d="m 110.01138,133.12645 0.0637,125.53368"
       id="path1133"
       sodipodi:nodetypes="cc"
       inkscape:export-xdpi="600"
       inkscape:export-ydpi="600" />
  </g>
</svg>
